<svg width="31" height="31" viewBox="0 0 31 31" fill="none" xmlns="http://www.w3.org/2000/svg">
<rect width="30.4655" height="30.4655" rx="8.81896" fill="#E02F44"/>
<path d="M11.3845 16.8561C10.8375 16.3193 10.6162 15.4974 10.8057 14.7105C10.9735 14.0132 11.4526 13.4625 12.0957 13.2214L16.8885 10.6499C19.1095 9.45803 21.8768 9.81948 23.619 11.529C23.9676 11.871 24.2665 12.2601 24.5072 12.6856C24.9662 13.4968 25.1992 14.3642 25.1995 15.264C25.1995 16.1635 24.9668 17.0311 24.5072 17.843C23.0412 20.4332 19.6238 21.3464 16.8883 19.8789L12.096 17.3079C11.8271 17.2072 11.5879 17.0556 11.3845 16.8561Z" fill="white"/>
<path d="M6.15541 15.8708C5.99717 15.7156 5.89951 15.5015 5.89951 15.2643C5.89952 14.7906 6.2908 14.4067 6.77357 14.4066L11.5814 14.4066C12.0642 14.4066 12.4554 14.7905 12.4554 15.2642C12.4554 15.7379 12.0641 16.1218 11.5814 16.1218L6.77354 16.1219C6.53185 16.1219 6.31365 16.0261 6.15541 15.8708Z" fill="white"/>
<path d="M5.60127 14.9134C6.36938 15.6671 7.61474 15.6671 8.38287 14.9134C9.15101 14.1597 9.15103 12.9377 8.38292 12.184C7.61482 11.4303 6.36945 11.4303 5.60132 12.184C4.83319 12.9377 4.83317 14.1597 5.60127 14.9134Z" fill="white"/>
<path d="M5.60121 18.3446C6.36932 19.0983 7.61468 19.0983 8.38281 18.3446C9.15095 17.5908 9.15097 16.3688 8.38286 15.6151C7.61476 14.8615 6.36939 14.8615 5.60126 15.6152C4.83313 16.3689 4.83311 17.5909 5.60121 18.3446Z" fill="white"/>
</svg>
